# xmcd
#
# Track frame offsets:
#	150
#	11383
#	21815
#	31838
#	38613
#	42738
#	53913
#	61263
#	72393
#	77783
#	85635
#	93930
#	101373
#	108963
#	114483
#	120983
#	126488
#
# Disc length: 1781 seconds
#
# Revision: 0
# Processed by: cddbd v1.4b42PL1 Copyright (c) Steve Scherf et al.
# Submitted via: audiograbber 1.80
#
DISCID=cf06f311
DTITLE=Bing Crosby - White Christmas
DYEAR=1900
DGENRE=
TTITLE0=White Christmas
TTITLE1=Adeste Fideles
TTITLE2=Rudolph the red-nosed Reindeer
TTITLE3=Away in a manager
TTITLE4=O' little town of Bethlehem
TTITLE5=Silent Night
TTITLE6=That Christmas Feeling
TTITLE7=Jingle Bells
TTITLE8=Hitch a ride with Santa Claus
TTITLE9=The Snowman
TTITLE10=It came upon a midnight clear
TTITLE11=Santa Claus is coming to town
TTITLE12=The Christmas song
TTITLE13=Deck the halls
TTITLE14=Hark/ The Herald angels sing
TTITLE15=God rest ye merry Gentlemen
TTITLE16=O'come all ye faithfull
EXTD=
EXTT0=
EXTT1=
EXTT2=
EXTT3=
EXTT4=
EXTT5=
EXTT6=
EXTT7=
EXTT8=
EXTT9=
EXTT10=
EXTT11=
EXTT12=
EXTT13=
EXTT14=
EXTT15=
EXTT16=
PLAYORDER=
